<?xml version="1.0" encoding="UTF-8"?>
<svg width="250px" height="32px" version="1.1" viewBox="0 0 250 32" xmlns="http://www.w3.org/2000/svg">
  <g transform="translate(11)">
    <g transform="translate(98)" fill="#F00563">
      <path d="m16 0.2151l16 12.308v19.477h-32v-19.477l16-12.308zm3 25.785h7v-10.523l-10-7.6923-10 7.6923v10.523h7v-9h6v9z" fill-rule="nonzero"/>
    </g>
    <path d="m156.19 24v-13.508l-6.16 10.538h-0.704l-6.16-10.538v13.508h-1.122v-15.62h1.122l6.512 11.176 6.512-11.176h1.122v15.62h-1.122zm9.68 0.22c-0.80667 0-1.551-0.15767-2.233-0.473s-1.2723-0.74433-1.771-1.287-0.88733-1.1733-1.166-1.892-0.418-1.474-0.418-2.266c0-0.80667 0.143-1.5693 0.429-2.288s0.67833-1.3493 1.177-1.892 1.089-0.97167 1.771-1.287 1.419-0.473 2.211-0.473 1.5253 0.15767 2.2 0.473 1.265 0.74433 1.771 1.287 0.902 1.1733 1.188 1.892 0.429 1.4813 0.429 2.288c0 0.792-0.143 1.5473-0.429 2.266s-0.67833 1.3493-1.177 1.892-1.089 0.97167-1.771 1.287-1.419 0.473-2.211 0.473zm-4.488-5.874c0 0.67467 0.11733 1.309 0.352 1.903s0.55366 1.111 0.957 1.551 0.87633 0.78833 1.419 1.045c0.54267 0.25667 1.122 0.385 1.738 0.385s1.1953-0.12833 1.738-0.385c0.54267-0.25667 1.0193-0.61233 1.43-1.067s0.73333-0.979 0.968-1.573 0.352-1.2357 0.352-1.925c0-0.67467-0.11733-1.309-0.352-1.903s-0.55733-1.1147-0.968-1.562-0.88366-0.803-1.419-1.067-1.111-0.396-1.727-0.396-1.1953 0.132-1.738 0.396-1.0157 0.62333-1.419 1.078-0.726 0.98633-0.968 1.595-0.363 1.2503-0.363 1.925zm18.128-4.796c-1.0267 0.029334-1.925 0.33366-2.695 0.913s-1.309 1.375-1.617 2.387v7.15h-1.1v-11.44h1.056v2.816c0.396-0.80667 0.92033-1.463 1.573-1.969s1.353-0.79567 2.101-0.869c0.14667-0.014667 0.27867-0.022 0.396-0.022h0.286v1.034zm8.194 9.9c-0.058667 0.029334-0.15767 0.084333-0.297 0.165s-0.31533 0.15767-0.528 0.231-0.451 0.13933-0.715 0.198-0.55 0.088-0.858 0.088-0.59766-0.044-0.869-0.132-0.50967-0.22-0.715-0.396-0.36667-0.38867-0.484-0.638-0.176-0.54266-0.176-0.88v-8.624h-1.606v-0.902h1.606v-3.916h1.1v3.916h2.662v0.902h-2.662v8.36c0 0.42534 0.14666 0.74433 0.44 0.957s0.62333 0.319 0.99 0.319c0.45467 0 0.847-0.076999 1.177-0.231s0.53167-0.253 0.605-0.297l0.33 0.88zm7.056 0.726c-0.792 0-1.518-0.165-2.178-0.495-0.66-0.33-1.2283-0.77-1.705-1.32s-0.85066-1.177-1.122-1.881-0.407-1.43-0.407-2.178c0-0.77734 0.12833-1.5253 0.385-2.244s0.61966-1.353 1.089-1.903c0.46934-0.55 1.0303-0.98633 1.683-1.309s1.375-0.484 2.167-0.484c0.99734 0 1.8663 0.26033 2.607 0.781s1.3677 1.155 1.881 1.903v-2.486h1.012v11.66c0 0.77734-0.14666 1.4593-0.44 2.046s-0.68566 1.0743-1.177 1.463-1.0633 0.682-1.716 0.88-1.3383 0.297-2.057 0.297c-0.66 0-1.254-0.062333-1.782-0.187s-0.99366-0.30067-1.397-0.528-0.76266-0.506-1.078-0.836c-0.31534-0.33-0.59033-0.693-0.825-1.089l0.748-0.506c0.45467 0.77734 1.0707 1.3457 1.848 1.705s1.606 0.539 2.486 0.539c0.58667 0 1.1403-0.080666 1.661-0.242s0.97533-0.39967 1.364-0.715 0.69667-0.70766 0.924-1.177 0.341-1.0193 0.341-1.65v-2.508c-0.46934 0.748-1.0927 1.3457-1.87 1.793s-1.5913 0.671-2.442 0.671zm0.264-0.946c0.484 0 0.957-0.091666 1.419-0.275s0.88-0.42167 1.254-0.715 0.682-0.62333 0.924-0.99 0.39233-0.73333 0.451-1.1v-3.762c-0.176-0.44-0.41066-0.847-0.704-1.221s-0.627-0.693-1.001-0.957-0.77733-0.473-1.21-0.627-0.869-0.231-1.309-0.231c-0.68934 0-1.3053 0.14667-1.848 0.44s-1.001 0.67466-1.375 1.144-0.66 1.001-0.858 1.595-0.297 1.1917-0.297 1.793c0 0.66 0.11733 1.2833 0.352 1.87s0.55733 1.1073 0.968 1.562 0.89466 0.814 1.452 1.078 1.1513 0.396 1.782 0.396zm10.896 0.99c-0.528 0-1.0193-0.091666-1.474-0.275s-0.85433-0.43267-1.199-0.748-0.61233-0.68933-0.803-1.122-0.286-0.89833-0.286-1.397 0.11733-0.95333 0.352-1.364 0.561-0.76633 0.979-1.067 0.92033-0.53533 1.507-0.704 1.232-0.253 1.936-0.253c0.616 0 1.2357 0.054999 1.859 0.165s1.1843 0.26033 1.683 0.451v-1.122c0-1.0853-0.308-1.947-0.924-2.585s-1.452-0.957-2.508-0.957c-0.55734 0-1.1477 0.11733-1.771 0.352s-1.2577 0.572-1.903 1.012l-0.418-0.748c1.4667-0.99734 2.86-1.496 4.18-1.496 1.3787 0 2.464 0.39966 3.256 1.199s1.188 1.903 1.188 3.311v5.588c0 0.36667 0.16133 0.55 0.484 0.55v0.99c-0.073334 0.014667-0.15033 0.025667-0.231 0.033s-0.15033 0.011-0.209 0.011c-0.29334 0-0.528-0.098999-0.704-0.297s-0.27867-0.43633-0.308-0.715v-0.946c-0.528 0.68934-1.2027 1.2173-2.024 1.584s-1.7087 0.55-2.662 0.55zm0.22-0.88c0.85067 0 1.6317-0.16133 2.343-0.484s1.2577-0.748 1.639-1.276c0.23467-0.308 0.352-0.60133 0.352-0.88v-2.024c-0.528-0.20533-1.078-0.35933-1.65-0.462s-1.166-0.154-1.782-0.154c-0.572 0-1.0927 0.062333-1.562 0.187s-0.87266 0.297-1.21 0.517-0.59767 0.48767-0.781 0.803-0.275 0.66366-0.275 1.045 0.073333 0.74066 0.22 1.078 0.352 0.627 0.616 0.869 0.57566 0.43267 0.935 0.572 0.74433 0.209 1.155 0.209zm12.898 0.836c-0.792 0-1.518-0.165-2.178-0.495-0.66-0.33-1.2283-0.77-1.705-1.32s-0.85066-1.177-1.122-1.881-0.407-1.43-0.407-2.178c0-0.77734 0.12833-1.5253 0.385-2.244s0.61966-1.353 1.089-1.903c0.46934-0.55 1.0303-0.98633 1.683-1.309s1.375-0.484 2.167-0.484c0.99734 0 1.8663 0.26033 2.607 0.781s1.3677 1.155 1.881 1.903v-2.486h1.012v11.66c0 0.77734-0.14666 1.4593-0.44 2.046s-0.68566 1.0743-1.177 1.463-1.0633 0.682-1.716 0.88-1.3383 0.297-2.057 0.297c-0.66 0-1.254-0.062333-1.782-0.187s-0.99366-0.30067-1.397-0.528-0.76266-0.506-1.078-0.836c-0.31534-0.33-0.59033-0.693-0.825-1.089l0.748-0.506c0.45467 0.77734 1.0707 1.3457 1.848 1.705s1.606 0.539 2.486 0.539c0.58667 0 1.1403-0.080666 1.661-0.242s0.97533-0.39967 1.364-0.715 0.69667-0.70766 0.924-1.177 0.341-1.0193 0.341-1.65v-2.508c-0.46934 0.748-1.0927 1.3457-1.87 1.793s-1.5913 0.671-2.442 0.671zm0.264-0.946c0.484 0 0.957-0.091666 1.419-0.275s0.88-0.42167 1.254-0.715 0.682-0.62333 0.924-0.99 0.39233-0.73333 0.451-1.1v-3.762c-0.176-0.44-0.41066-0.847-0.704-1.221s-0.627-0.693-1.001-0.957-0.77733-0.473-1.21-0.627-0.869-0.231-1.309-0.231c-0.68934 0-1.3053 0.14667-1.848 0.44s-1.001 0.67466-1.375 1.144-0.66 1.001-0.858 1.595-0.297 1.1917-0.297 1.793c0 0.66 0.11733 1.2833 0.352 1.87s0.55733 1.1073 0.968 1.562 0.89466 0.814 1.452 1.078 1.1513 0.396 1.782 0.396zm12.942 0.99c-0.80667 0-1.5547-0.15767-2.244-0.473s-1.287-0.748-1.793-1.298c-0.506-0.55-0.902-1.1843-1.188-1.903s-0.429-1.4887-0.429-2.31c0-0.80667 0.143-1.5657 0.429-2.277s0.67833-1.3347 1.177-1.87 1.089-0.957 1.771-1.265 1.419-0.462 2.211-0.462c0.80667 0 1.5547 0.15767 2.244 0.473s1.2833 0.74066 1.782 1.276 0.88733 1.1587 1.166 1.87 0.418 1.463 0.418 2.255v0.275c0 0.11-0.007333 0.17967-0.022 0.209h-10.032c0.044 0.66 0.198 1.2723 0.462 1.837s0.59766 1.0523 1.001 1.463 0.869 0.73333 1.397 0.968 1.0927 0.352 1.694 0.352c0.396 0 0.78466-0.055 1.166-0.165s0.737-0.26033 1.067-0.451 0.62333-0.42167 0.88-0.693 0.45833-0.56833 0.605-0.891l0.968 0.264c-0.16133 0.41067-0.39966 0.78833-0.715 1.133s-0.682 0.64167-1.1 0.891-0.87633 0.44367-1.375 0.583-1.012 0.209-1.54 0.209zm4.488-6.38c-0.044-0.67467-0.19433-1.2907-0.451-1.848s-0.58666-1.0377-0.99-1.441-0.869-0.71867-1.397-0.946-1.0927-0.341-1.694-0.341-1.166 0.11367-1.694 0.341-0.99366 0.54266-1.397 0.946-0.726 0.88733-0.968 1.452-0.385 1.177-0.429 1.837h9.02z" fill="#000" opacity=".5"/>
    <path d="m3.04 24v-15.62h6.49c0.66 0 1.2687 0.13933 1.826 0.418s1.0377 0.649 1.441 1.111c0.40334 0.462 0.71867 0.98266 0.946 1.562s0.341 1.1623 0.341 1.749c0 0.572-0.087999 1.1257-0.264 1.661s-0.42533 1.0157-0.748 1.441-0.71133 0.77733-1.166 1.056-0.95333 0.462-1.496 0.55l3.894 6.072h-1.298l-3.784-5.896h-5.06v5.896h-1.122zm1.122-6.93h5.478c0.49867 0 0.95333-0.11 1.364-0.33s0.76267-0.50966 1.056-0.869 0.517-0.77 0.671-1.232 0.231-0.935 0.231-1.419c0-0.49867-0.091666-0.979-0.275-1.441-0.18333-0.462-0.43267-0.869-0.748-1.221s-0.682-0.63433-1.1-0.847-0.869-0.319-1.353-0.319h-5.324v7.678zm17.858 7.15c-0.80667 0-1.5547-0.15767-2.244-0.473s-1.287-0.748-1.793-1.298c-0.506-0.55-0.902-1.1843-1.188-1.903s-0.429-1.4887-0.429-2.31c0-0.80667 0.143-1.5657 0.429-2.277s0.67833-1.3347 1.177-1.87 1.089-0.957 1.771-1.265 1.419-0.462 2.211-0.462c0.80667 0 1.5547 0.15767 2.244 0.473s1.2833 0.74066 1.782 1.276 0.88733 1.1587 1.166 1.87 0.418 1.463 0.418 2.255v0.275c0 0.11-0.0073333 0.17967-0.022 0.209h-10.032c0.044 0.66 0.198 1.2723 0.462 1.837s0.59766 1.0523 1.001 1.463c0.40334 0.41067 0.869 0.73333 1.397 0.968s1.0927 0.352 1.694 0.352c0.396 0 0.78466-0.055 1.166-0.165s0.737-0.26033 1.067-0.451c0.33-0.19067 0.62333-0.42167 0.88-0.693s0.45833-0.56833 0.605-0.891l0.968 0.264c-0.16133 0.41067-0.39967 0.78833-0.715 1.133s-0.682 0.64167-1.1 0.891-0.87633 0.44367-1.375 0.583-1.012 0.209-1.54 0.209zm4.488-6.38c-0.044-0.67467-0.19433-1.2907-0.451-1.848-0.25667-0.55734-0.58666-1.0377-0.99-1.441-0.40334-0.40334-0.869-0.71867-1.397-0.946s-1.0927-0.341-1.694-0.341-1.166 0.11367-1.694 0.341-0.99366 0.54266-1.397 0.946c-0.40334 0.40334-0.726 0.88733-0.968 1.452s-0.385 1.177-0.429 1.837h9.02zm6.792 6.38c-0.528 0-1.0193-0.091666-1.474-0.275s-0.85433-0.43267-1.199-0.748-0.61233-0.68933-0.803-1.122-0.286-0.89833-0.286-1.397 0.11733-0.95333 0.352-1.364 0.561-0.76633 0.979-1.067 0.92033-0.53533 1.507-0.704 1.232-0.253 1.936-0.253c0.616 0 1.2357 0.054999 1.859 0.165 0.62334 0.11 1.1843 0.26033 1.683 0.451v-1.122c0-1.0853-0.308-1.947-0.924-2.585s-1.452-0.957-2.508-0.957c-0.55734 0-1.1477 0.11733-1.771 0.352-0.62334 0.23467-1.2577 0.572-1.903 1.012l-0.418-0.748c1.4667-0.99734 2.86-1.496 4.18-1.496 1.3787 0 2.464 0.39966 3.256 1.199s1.188 1.903 1.188 3.311v5.588c0 0.36667 0.16133 0.55 0.484 0.55v0.99c-0.073334 0.014667-0.15033 0.025667-0.231 0.033s-0.15033 0.011-0.209 0.011c-0.29333 0-0.528-0.098999-0.704-0.297s-0.27867-0.43633-0.308-0.715v-0.946c-0.528 0.68934-1.2027 1.2173-2.024 1.584s-1.7087 0.55-2.662 0.55zm0.22-0.88c0.85067 0 1.6317-0.16133 2.343-0.484s1.2577-0.748 1.639-1.276c0.23467-0.308 0.352-0.60133 0.352-0.88v-2.024c-0.528-0.20533-1.078-0.35933-1.65-0.462s-1.166-0.154-1.782-0.154c-0.572 0-1.0927 0.062333-1.562 0.187s-0.87266 0.297-1.21 0.517-0.59767 0.48767-0.781 0.803c-0.18333 0.31533-0.275 0.66366-0.275 1.045s0.073333 0.74066 0.22 1.078 0.352 0.627 0.616 0.869 0.57566 0.43267 0.935 0.572 0.74433 0.209 1.155 0.209zm9.366-15.4h1.122v13.794c0 0.42534 0.121 0.76267 0.363 1.012s0.57566 0.374 1.001 0.374c0.16133 0 0.35567-0.018333 0.583-0.055 0.22733-0.036667 0.43633-0.091666 0.627-0.165l0.22 0.88c-0.24933 0.10267-0.55733 0.187-0.924 0.253s-0.682 0.099-0.946 0.099c-0.616 0-1.111-0.187-1.485-0.561s-0.561-0.87633-0.561-1.507v-14.124zm6.61 16.06v-11.44h1.1v11.44h-1.1zm0-14.036v-2.024h1.1v2.024h-1.1zm8.684 14.256c-0.88 0-1.7233-0.14667-2.53-0.44s-1.5107-0.73333-2.112-1.32l0.55-0.748c0.616 0.55734 1.254 0.968 1.914 1.232s1.386 0.396 2.178 0.396c0.99734 0 1.8003-0.209 2.409-0.627s0.913-1.001 0.913-1.749c0-0.352-0.076999-0.649-0.231-0.891s-0.385-0.44733-0.693-0.616-0.68933-0.319-1.144-0.451-0.98266-0.27133-1.584-0.418c-0.64534-0.14667-1.2063-0.29333-1.683-0.44s-0.869-0.32267-1.177-0.528-0.539-0.45467-0.693-0.748-0.231-0.66733-0.231-1.122c0-0.572 0.11-1.0707 0.33-1.496s0.52433-0.77733 0.913-1.056 0.836-0.48767 1.342-0.627 1.045-0.209 1.617-0.209c0.89467 0 1.6867 0.15033 2.376 0.451s1.2247 0.68566 1.606 1.155l-0.616 0.594c-0.38134-0.44-0.87633-0.77-1.485-0.99s-1.2577-0.33-1.947-0.33c-0.42534 0-0.825 0.044-1.199 0.132s-0.70033 0.22733-0.979 0.418-0.49867 0.43633-0.66 0.737-0.242 0.65633-0.242 1.067c0 0.33734 0.054999 0.60867 0.165 0.814s0.286 0.38133 0.528 0.528 0.55366 0.275 0.935 0.385 0.836 0.231 1.364 0.363c0.71867 0.176 1.3567 0.34467 1.914 0.506s1.023 0.35933 1.397 0.594 0.66 0.51333 0.858 0.836 0.297 0.73333 0.297 1.232c0 1.0267-0.39966 1.8443-1.199 2.453s-1.8663 0.913-3.201 0.913zm12.556-0.77c-0.058667 0.029334-0.15767 0.084333-0.297 0.165s-0.31533 0.15767-0.528 0.231-0.451 0.13933-0.715 0.198-0.55 0.088-0.858 0.088-0.59767-0.044-0.869-0.132-0.50967-0.22-0.715-0.396-0.36667-0.38867-0.484-0.638-0.176-0.54266-0.176-0.88v-8.624h-1.606v-0.902h1.606v-3.916h1.1v3.916h2.662v0.902h-2.662v8.36c0 0.42534 0.14667 0.74433 0.44 0.957s0.62333 0.319 0.99 0.319c0.45467 0 0.847-0.076999 1.177-0.231 0.33-0.154 0.53167-0.253 0.605-0.297l0.33 0.88zm2.436 0.55v-11.44h1.1v11.44h-1.1zm0-14.036v-2.024h1.1v2.024h-1.1zm3.762 8.272c0-0.80667 0.13933-1.5693 0.418-2.288s0.66733-1.342 1.166-1.87 1.0927-0.946 1.782-1.254 1.4447-0.462 2.266-0.462c1.0413 0 1.958 0.23466 2.75 0.704s1.386 1.122 1.782 1.958l-1.078 0.352c-0.33734-0.63067-0.81766-1.1257-1.441-1.485-0.62334-0.35934-1.309-0.539-2.057-0.539-0.63067 0-1.2173 0.12467-1.76 0.374s-1.0157 0.594-1.419 1.034c-0.40334 0.44-0.72233 0.957-0.957 1.551s-0.352 1.2357-0.352 1.925 0.121 1.3383 0.363 1.947 0.56466 1.1367 0.968 1.584c0.40334 0.44734 0.88 0.803 1.43 1.067 0.55 0.264 1.133 0.396 1.749 0.396 0.396 0 0.78833-0.058666 1.177-0.176s0.748-0.27133 1.078-0.462c0.33-0.19067 0.616-0.41433 0.858-0.671s0.407-0.52433 0.495-0.803l1.078 0.308c-0.14667 0.396-0.37033 0.76633-0.671 1.111s-0.65633 0.64167-1.067 0.891-0.86533 0.44367-1.364 0.583-1.012 0.209-1.54 0.209c-0.80667 0-1.5547-0.15767-2.244-0.473s-1.287-0.748-1.793-1.298c-0.506-0.55-0.902-1.1843-1.188-1.903s-0.429-1.4887-0.429-2.31z" fill="#000" opacity=".5"/>
  </g>
</svg>
