<?xml version="1.0" encoding="UTF-8"?>
<svg width="222px" height="32px" viewBox="0 0 222 32" version="1.1" xmlns="http://www.w3.org/2000/svg" xmlns:xlink="http://www.w3.org/1999/xlink">
  <path fill="#F00563" d="M17,6 L26,13.0440725 L26,24 L8,24 L8,13.0440725 L17,6 Z M22.625,20.625 L22.625,14.7059275 L17,10.3199997 L11.375,14.7059275 L11.375,20.625 L15.3125,20.625 L15.3125,15.5625 L18.6875,15.5625 L18.6875,20.625 L22.625,20.625 Z"></path>
  <path fill="#000000" opacity="0.8" d="M132.06,24 L132.06,14.6 L128.4,21.6 L126.9,21.6 L123.24,14.6 L123.24,24 L120.48,24 L120.48,9.8 L123.44,9.8 L127.64,17.88 L131.88,9.8 L134.82,9.8 L134.82,24 L132.06,24 Z M142.36,24.2 C141.506662,24.2 140.740003,24.0533348 140.06,23.76 C139.379997,23.4666652 138.803336,23.0700025 138.33,22.57 C137.856664,22.0699975 137.493335,21.4933366 137.24,20.84 C136.986665,20.1866634 136.86,19.5000036 136.86,18.78 C136.86,18.046663 136.986665,17.3533366 137.24,16.7 C137.493335,16.0466634 137.856664,15.4700025 138.33,14.97 C138.803336,14.4699975 139.379997,14.0733348 140.06,13.78 C140.740003,13.4866652 141.506662,13.34 142.36,13.34 C143.213338,13.34 143.976663,13.4866652 144.65,13.78 C145.323337,14.0733348 145.896664,14.4699975 146.37,14.97 C146.843336,15.4700025 147.206665,16.0466634 147.46,16.7 C147.713335,17.3533366 147.84,18.046663 147.84,18.78 C147.84,19.5000036 147.713335,20.1866634 147.46,20.84 C147.206665,21.4933366 146.846669,22.0699975 146.38,22.57 C145.913331,23.0700025 145.340003,23.4666652 144.66,23.76 C143.979997,24.0533348 143.213338,24.2 142.36,24.2 Z M139.62,18.78 C139.62,19.246669 139.689999,19.6699981 139.83,20.05 C139.970001,20.4300019 140.163332,20.7599986 140.41,21.04 C140.656668,21.3200014 140.946665,21.5366659 141.28,21.69 C141.613335,21.8433341 141.973331,21.92 142.36,21.92 C142.746669,21.92 143.106665,21.8433341 143.44,21.69 C143.773335,21.5366659 144.063332,21.3200014 144.31,21.04 C144.556668,20.7599986 144.749999,20.4266686 144.89,20.04 C145.030001,19.6533314 145.1,19.226669 145.1,18.76 C145.1,18.3066644 145.030001,17.8866686 144.89,17.5 C144.749999,17.1133314 144.556668,16.7800014 144.31,16.5 C144.063332,16.2199986 143.773335,16.0033341 143.44,15.85 C143.106665,15.6966659 142.746669,15.62 142.36,15.62 C141.973331,15.62 141.613335,15.6999992 141.28,15.86 C140.946665,16.0200008 140.656668,16.2399986 140.41,16.52 C140.163332,16.8000014 139.970001,17.1333314 139.83,17.52 C139.689999,17.9066686 139.62,18.3266644 139.62,18.78 Z M155.88,15.84 C155.066663,15.8533334 154.340003,16.0099985 153.7,16.31 C153.059997,16.6100015 152.600001,17.059997 152.32,17.66 L152.32,24 L149.64,24 L149.64,13.52 L152.1,13.52 L152.1,15.76 C152.286668,15.3999982 152.506665,15.0766681 152.76,14.79 C153.013335,14.5033319 153.286665,14.2533344 153.58,14.04 C153.873335,13.8266656 154.169999,13.6633339 154.47,13.55 C154.770002,13.4366661 155.059999,13.38 155.34,13.38 L155.67,13.38 C155.743334,13.38 155.813333,13.3866666 155.88,13.4 L155.88,15.84 Z M163.66,23.46 C163.299998,23.6200008 162.860003,23.7799992 162.34,23.94 C161.819997,24.1000008 161.273336,24.18 160.7,24.18 C160.326665,24.18 159.976668,24.1333338 159.65,24.04 C159.323332,23.9466662 159.036668,23.7966677 158.79,23.59 C158.543332,23.3833323 158.346667,23.1166683 158.2,22.79 C158.053333,22.4633317 157.98,22.066669 157.98,21.6 L157.98,15.58 L156.6,15.58 L156.6,13.52 L157.98,13.52 L157.98,10.12 L160.66,10.12 L160.66,13.52 L162.86,13.52 L162.86,15.58 L160.66,15.58 L160.66,20.7 C160.66,21.0733352 160.756666,21.3366659 160.95,21.49 C161.143334,21.6433341 161.379999,21.72 161.66,21.72 C161.940001,21.72 162.213332,21.6733338 162.48,21.58 C162.746668,21.4866662 162.959999,21.406667 163.12,21.34 L163.66,23.46 Z M169.16,24.06 C168.45333,24.06 167.813336,23.9200014 167.24,23.64 C166.666664,23.3599986 166.170002,22.9766691 165.75,22.49 C165.329998,22.0033309 165.006668,21.4400032 164.78,20.8 C164.553332,20.1599968 164.44,19.4800036 164.44,18.76 C164.44,17.9999962 164.559999,17.2933366 164.8,16.64 C165.040001,15.9866634 165.373331,15.4133358 165.8,14.92 C166.226669,14.4266642 166.739997,14.0400014 167.34,13.76 C167.940003,13.4799986 168.599996,13.34 169.32,13.34 C170.133337,13.34 170.846664,13.5233315 171.46,13.89 C172.073336,14.2566685 172.579998,14.7466636 172.98,15.36 L172.98,13.52 L175.32,13.52 L175.32,23.5 C175.32,24.2733372 175.173335,24.9666636 174.88,25.58 C174.586665,26.1933364 174.183336,26.7133312 173.67,27.14 C173.156664,27.5666688 172.543337,27.8933322 171.83,28.12 C171.116663,28.3466678 170.340004,28.46 169.5,28.46 C168.353328,28.46 167.390004,28.2700019 166.61,27.89 C165.829996,27.5099981 165.160003,26.9733368 164.6,26.28 L166.06,24.86 C166.460002,25.3533358 166.96333,25.7399986 167.57,26.02 C168.17667,26.3000014 168.819997,26.44 169.5,26.44 C169.913335,26.44 170.309998,26.3833339 170.69,26.27 C171.070002,26.1566661 171.406665,25.9800012 171.7,25.74 C171.993335,25.4999988 172.223333,25.1933352 172.39,24.82 C172.556668,24.4466648 172.64,24.0066692 172.64,23.5 L172.64,22.18 C172.293332,22.780003 171.80667,23.2433317 171.18,23.57 C170.55333,23.8966683 169.880004,24.06 169.16,24.06 Z M170.06,21.92 C170.353335,21.92 170.633332,21.8733338 170.9,21.78 C171.166668,21.6866662 171.413332,21.5600008 171.64,21.4 C171.866668,21.2399992 172.066666,21.0533344 172.24,20.84 C172.413334,20.6266656 172.546666,20.4000012 172.64,20.16 L172.64,17.66 C172.399999,17.0466636 172.023336,16.5533352 171.51,16.18 C170.996664,15.8066648 170.460003,15.62 169.9,15.62 C169.486665,15.62 169.113335,15.7099991 168.78,15.89 C168.446665,16.0700009 168.160001,16.3099985 167.92,16.61 C167.679999,16.9100015 167.496667,17.2533314 167.37,17.64 C167.243333,18.0266686 167.18,18.4266646 167.18,18.84 C167.18,19.2666688 167.253333,19.6666648 167.4,20.04 C167.546667,20.4133352 167.749999,20.7399986 168.01,21.02 C168.270001,21.3000014 168.573332,21.5199992 168.92,21.68 C169.266668,21.8400008 169.646665,21.92 170.06,21.92 Z M180.6,24.2 C180.093331,24.2 179.620002,24.1166675 179.18,23.95 C178.739998,23.7833325 178.360002,23.5500015 178.04,23.25 C177.719998,22.9499985 177.470001,22.600002 177.29,22.2 C177.109999,21.799998 177.02,21.3600024 177.02,20.88 C177.02,20.3866642 177.129999,19.9300021 177.35,19.51 C177.570001,19.0899979 177.876665,18.7333348 178.27,18.44 C178.663335,18.1466652 179.133331,17.9166675 179.68,17.75 C180.226669,17.5833325 180.826663,17.5 181.48,17.5 C181.946669,17.5 182.403331,17.5399996 182.85,17.62 C183.296669,17.7000004 183.693332,17.8133326 184.04,17.96 L184.04,17.36 C184.04,16.6666632 183.843335,16.1333352 183.45,15.76 C183.056665,15.3866648 182.473337,15.2 181.7,15.2 C181.139997,15.2 180.593336,15.299999 180.06,15.5 C179.526664,15.700001 178.980003,15.9933314 178.42,16.38 L177.6,14.68 C178.946673,13.7866622 180.399992,13.34 181.96,13.34 C183.466674,13.34 184.636663,13.7099963 185.47,14.45 C186.303338,15.1900037 186.72,16.259993 186.72,17.66 L186.72,20.92 C186.72,21.2000014 186.77,21.3999994 186.87,21.52 C186.970001,21.6400006 187.133332,21.7066666 187.36,21.72 L187.36,24 C186.906664,24.0933338 186.513335,24.14 186.18,24.14 C185.673331,24.14 185.283335,24.0266678 185.01,23.8 C184.736665,23.5733322 184.566667,23.2733352 184.5,22.9 L184.44,22.32 C183.973331,22.9333364 183.40667,23.3999984 182.74,23.72 C182.07333,24.0400016 181.360004,24.2 180.6,24.2 Z M181.36,22.24 C181.813336,22.24 182.243331,22.1600008 182.65,22 C183.056669,21.8399992 183.373332,21.626668 183.6,21.36 C183.893335,21.1333322 184.04,20.8800014 184.04,20.6 L184.04,19.4 C183.719998,19.2799994 183.373335,19.1833337 183,19.11 C182.626665,19.0366663 182.266668,19 181.92,19 C181.226663,19 180.660002,19.1566651 180.22,19.47 C179.779998,19.7833349 179.56,20.1799976 179.56,20.66 C179.56,21.1133356 179.733332,21.4899985 180.08,21.79 C180.426668,22.0900015 180.853331,22.24 181.36,22.24 Z M193.32,24.06 C192.61333,24.06 191.973336,23.9200014 191.4,23.64 C190.826664,23.3599986 190.330002,22.9766691 189.91,22.49 C189.489998,22.0033309 189.166668,21.4400032 188.94,20.8 C188.713332,20.1599968 188.6,19.4800036 188.6,18.76 C188.6,17.9999962 188.719999,17.2933366 188.96,16.64 C189.200001,15.9866634 189.533331,15.4133358 189.96,14.92 C190.386669,14.4266642 190.899997,14.0400014 191.5,13.76 C192.100003,13.4799986 192.759996,13.34 193.48,13.34 C194.293337,13.34 195.006664,13.5233315 195.62,13.89 C196.233336,14.2566685 196.739998,14.7466636 197.14,15.36 L197.14,13.52 L199.48,13.52 L199.48,23.5 C199.48,24.2733372 199.333335,24.9666636 199.04,25.58 C198.746665,26.1933364 198.343336,26.7133312 197.83,27.14 C197.316664,27.5666688 196.703337,27.8933322 195.99,28.12 C195.276663,28.3466678 194.500004,28.46 193.66,28.46 C192.513328,28.46 191.550004,28.2700019 190.77,27.89 C189.989996,27.5099981 189.320003,26.9733368 188.76,26.28 L190.22,24.86 C190.620002,25.3533358 191.12333,25.7399986 191.73,26.02 C192.33667,26.3000014 192.979997,26.44 193.66,26.44 C194.073335,26.44 194.469998,26.3833339 194.85,26.27 C195.230002,26.1566661 195.566665,25.9800012 195.86,25.74 C196.153335,25.4999988 196.383332,25.1933352 196.55,24.82 C196.716668,24.4466648 196.8,24.0066692 196.8,23.5 L196.8,22.18 C196.453332,22.780003 195.96667,23.2433317 195.34,23.57 C194.71333,23.8966683 194.040004,24.06 193.32,24.06 Z M194.22,21.92 C194.513335,21.92 194.793332,21.8733338 195.06,21.78 C195.326668,21.6866662 195.573332,21.5600008 195.8,21.4 C196.026668,21.2399992 196.226666,21.0533344 196.4,20.84 C196.573334,20.6266656 196.706666,20.4000012 196.8,20.16 L196.8,17.66 C196.559999,17.0466636 196.183336,16.5533352 195.67,16.18 C195.156664,15.8066648 194.620003,15.62 194.06,15.62 C193.646665,15.62 193.273335,15.7099991 192.94,15.89 C192.606665,16.0700009 192.320001,16.3099985 192.08,16.61 C191.839999,16.9100015 191.656667,17.2533314 191.53,17.64 C191.403333,18.0266686 191.34,18.4266646 191.34,18.84 C191.34,19.2666688 191.413333,19.6666648 191.56,20.04 C191.706667,20.4133352 191.909999,20.7399986 192.17,21.02 C192.430001,21.3000014 192.733332,21.5199992 193.08,21.68 C193.426668,21.8400008 193.806665,21.92 194.22,21.92 Z M206.76,24.2 C205.919996,24.2 205.160003,24.0566681 204.48,23.77 C203.799997,23.4833319 203.220002,23.0933358 202.74,22.6 C202.259998,22.1066642 201.890001,21.5333366 201.63,20.88 C201.369999,20.2266634 201.24,19.5400036 201.24,18.82 C201.24,18.0733296 201.366665,17.3700033 201.62,16.71 C201.873335,16.0499967 202.239998,15.4700025 202.72,14.97 C203.200002,14.4699975 203.78333,14.0733348 204.47,13.78 C205.15667,13.4866652 205.926662,13.34 206.78,13.34 C207.633338,13.34 208.396663,13.4866652 209.07,13.78 C209.743337,14.0733348 210.316664,14.4666642 210.79,14.96 C211.263336,15.4533358 211.623332,16.0266634 211.87,16.68 C212.116668,17.3333366 212.24,18.0133298 212.24,18.72 C212.24,18.8933342 212.236667,19.0599992 212.23,19.22 C212.223333,19.3800008 212.206667,19.5133328 212.18,19.62 L204.08,19.62 C204.12,20.0333354 204.219999,20.3999984 204.38,20.72 C204.540001,21.0400016 204.746665,21.3133322 205,21.54 C205.253335,21.7666678 205.539998,21.9399994 205.86,22.06 C206.180002,22.1800006 206.513332,22.24 206.86,22.24 C207.393336,22.24 207.896664,22.1100013 208.37,21.85 C208.843336,21.5899987 209.166666,21.2466688 209.34,20.82 L211.64,21.46 C211.253331,22.260004 210.636671,22.9166641 209.79,23.43 C208.943329,23.9433359 207.933339,24.2 206.76,24.2 Z M209.48,17.88 C209.413333,17.0933294 209.123336,16.4633357 208.61,15.99 C208.096664,15.5166643 207.473337,15.28 206.74,15.28 C206.379998,15.28 206.043335,15.3433327 205.73,15.47 C205.416665,15.5966673 205.140001,15.7733322 204.9,16 C204.659999,16.2266678 204.463334,16.4999984 204.31,16.82 C204.156666,17.1400016 204.066667,17.4933314 204.04,17.88 L209.48,17.88 Z"></path>
  <path fill="#000000" opacity="0.8" d="M32.48,24 L32.48,9.8 L38.76,9.8 C39.4133366,9.8 40.0166639,9.9366653 40.57,10.21 C41.1233361,10.4833347 41.599998,10.8433311 42,11.29 C42.400002,11.7366689 42.7133322,12.2433305 42.94,12.81 C43.1666678,13.3766695 43.28,13.9466638 43.28,14.52 C43.28,15.4400046 43.0500023,16.2766629 42.59,17.03 C42.1299977,17.7833371 41.5066706,18.326665 40.72,18.66 L43.96,24 L40.86,24 L37.96,19.24 L35.24,19.24 L35.24,24 L32.48,24 Z M35.24,16.82 L38.7,16.82 C38.9533346,16.82 39.1899989,16.7600006 39.41,16.64 C39.6300011,16.5199994 39.8199992,16.3566677 39.98,16.15 C40.1400008,15.9433323 40.2666662,15.7000014 40.36,15.42 C40.4533338,15.1399986 40.5,14.8400016 40.5,14.52 C40.5,14.186665 40.4466672,13.8800014 40.34,13.6 C40.2333328,13.3199986 40.0900009,13.0766677 39.91,12.87 C39.7299991,12.6633323 39.5233345,12.5033339 39.29,12.39 C39.0566655,12.2766661 38.8200012,12.22 38.58,12.22 L35.24,12.22 L35.24,16.82 Z M50.5345454,24.2 C49.6945412,24.2 48.9345488,24.0566681 48.2545454,23.77 C47.574542,23.4833319 46.9945478,23.0933358 46.5145454,22.6 C46.034543,22.1066642 45.6645467,21.5333366 45.4045454,20.88 C45.1445441,20.2266634 45.0145454,19.5400036 45.0145454,18.82 C45.0145454,18.0733296 45.1412108,17.3700033 45.3945454,16.71 C45.64788,16.0499967 46.014543,15.4700025 46.4945454,14.97 C46.9745478,14.4699975 47.5578753,14.0733348 48.2445454,13.78 C48.9312155,13.4866652 49.7012078,13.34 50.5545454,13.34 C51.407883,13.34 52.1712087,13.4866652 52.8445454,13.78 C53.5178821,14.0733348 54.0912097,14.4666642 54.5645454,14.96 C55.0378811,15.4533358 55.3978775,16.0266634 55.6445454,16.68 C55.8912133,17.3333366 56.0145454,18.0133298 56.0145454,18.72 C56.0145454,18.8933342 56.0112121,19.0599992 56.0045454,19.22 C55.9978787,19.3800008 55.9812122,19.5133328 55.9545454,19.62 L47.8545454,19.62 C47.8945456,20.0333354 47.9945446,20.3999984 48.1545454,20.72 C48.3145462,21.0400016 48.5212108,21.3133322 48.7745454,21.54 C49.02788,21.7666678 49.3145438,21.9399994 49.6345454,22.06 C49.954547,22.1800006 50.287877,22.24 50.6345454,22.24 C51.1678814,22.24 51.6712097,22.1100013 52.1445454,21.85 C52.6178811,21.5899987 52.9412112,21.2466688 53.1145454,20.82 L55.4145454,21.46 C55.0278768,22.260004 54.4112163,22.9166641 53.5645454,23.43 C52.7178745,23.9433359 51.7078846,24.2 50.5345454,24.2 Z M53.2545454,17.88 C53.1878784,17.0933294 52.8978813,16.4633357 52.3845454,15.99 C51.8712095,15.5166643 51.2478824,15.28 50.5145454,15.28 C50.1545436,15.28 49.8178803,15.3433327 49.5045454,15.47 C49.1912105,15.5966673 48.9145466,15.7733322 48.6745454,16 C48.4345442,16.2266678 48.2378795,16.4999984 48.0845454,16.82 C47.9312113,17.1400016 47.8412122,17.4933314 47.8145454,17.88 L53.2545454,17.88 Z M60.9690909,24.2 C60.4624217,24.2 59.9890931,24.1166675 59.5490909,23.95 C59.1090887,23.7833325 58.7290925,23.5500015 58.4090909,23.25 C58.0890893,22.9499985 57.8390918,22.600002 57.6590909,22.2 C57.47909,21.799998 57.3890909,21.3600024 57.3890909,20.88 C57.3890909,20.3866642 57.4990898,19.9300021 57.7190909,19.51 C57.939092,19.0899979 58.2457556,18.7333348 58.6390909,18.44 C59.0324262,18.1466652 59.5024215,17.9166675 60.0490909,17.75 C60.5957603,17.5833325 61.1957543,17.5 61.8490909,17.5 C62.3157599,17.5 62.772422,17.5399996 63.2190909,17.62 C63.6657598,17.7000004 64.0624225,17.8133326 64.4090909,17.96 L64.4090909,17.36 C64.4090909,16.6666632 64.2124262,16.1333352 63.8190909,15.76 C63.4257556,15.3866648 62.8424281,15.2 62.0690909,15.2 C61.5090881,15.2 60.9624269,15.299999 60.4290909,15.5 C59.8957549,15.700001 59.3490937,15.9933314 58.7890909,16.38 L57.9690909,14.68 C59.3157643,13.7866622 60.7690831,13.34 62.3290909,13.34 C63.8357651,13.34 65.0057534,13.7099963 65.8390909,14.45 C66.6724284,15.1900037 67.0890909,16.259993 67.0890909,17.66 L67.0890909,20.92 C67.0890909,21.2000014 67.1390904,21.3999994 67.2390909,21.52 C67.3390914,21.6400006 67.5024231,21.7066666 67.7290909,21.72 L67.7290909,24 C67.2757553,24.0933338 66.8824259,24.14 66.5490909,24.14 C66.0424217,24.14 65.6524256,24.0266678 65.3790909,23.8 C65.1057562,23.5733322 64.9357579,23.2733352 64.8690909,22.9 L64.8090909,22.32 C64.3424219,22.9333364 63.7757609,23.3999984 63.1090909,23.72 C62.4424209,24.0400016 61.7290947,24.2 60.9690909,24.2 Z M61.7290909,22.24 C62.1824265,22.24 62.6124222,22.1600008 63.0190909,22 C63.4257596,21.8399992 63.7424231,21.626668 63.9690909,21.36 C64.2624257,21.1333322 64.4090909,20.8800014 64.4090909,20.6 L64.4090909,19.4 C64.0890893,19.2799994 63.7424261,19.1833337 63.3690909,19.11 C62.9957557,19.0366663 62.6357593,19 62.2890909,19 C61.5957541,19 61.0290931,19.1566651 60.5890909,19.47 C60.1490887,19.7833349 59.9290909,20.1799976 59.9290909,20.66 C59.9290909,21.1133356 60.1024225,21.4899985 60.4490909,21.79 C60.7957593,22.0900015 61.2224217,22.24 61.7290909,22.24 Z M70.0236363,9.4 L72.7036363,9.4 L72.7036363,20.64 C72.7036363,21.0266686 72.7969687,21.3266656 72.9836363,21.54 C73.1703039,21.7533344 73.4369679,21.86 73.7836363,21.86 C73.9436371,21.86 74.120302,21.8333336 74.3136363,21.78 C74.5069706,21.7266664 74.6903021,21.6600004 74.8636363,21.58 L75.2236363,23.62 C74.8636345,23.7933342 74.4436387,23.9266662 73.9636363,24.02 C73.4836339,24.1133338 73.0503049,24.16 72.6636363,24.16 C71.8236321,24.16 71.1736386,23.9366689 70.7136363,23.49 C70.253634,23.0433311 70.0236363,22.4066708 70.0236363,21.58 L70.0236363,9.4 Z M76.8381818,24 L76.8381818,13.52 L79.5181818,13.52 L79.5181818,24 L76.8381818,24 Z M76.8381818,12.06 L76.8381818,9.4 L79.5181818,9.4 L79.5181818,12.06 L76.8381818,12.06 Z M86.3527272,24.2 C85.4727228,24.2 84.6127314,24.0600014 83.7727272,23.78 C82.932723,23.4999986 82.2127302,23.1000026 81.6127272,22.58 L82.6127272,20.9 C83.2527304,21.3533356 83.8760575,21.6966655 84.4827272,21.93 C85.0893969,22.1633345 85.6927242,22.28 86.2927272,22.28 C86.8260632,22.28 87.246059,22.180001 87.5527272,21.98 C87.8593954,21.779999 88.0127272,21.4933352 88.0127272,21.12 C88.0127272,20.7466648 87.832729,20.4733342 87.4727272,20.3 C87.1127254,20.1266658 86.5260646,19.9266678 85.7127272,19.7 C85.0327238,19.5133324 84.4527296,19.3333342 83.9727272,19.16 C83.4927248,18.9866658 83.106062,18.7900011 82.8127272,18.57 C82.5193924,18.3499989 82.3060612,18.0966681 82.1727272,17.81 C82.0393932,17.5233319 81.9727272,17.180002 81.9727272,16.78 C81.9727272,16.246664 82.0760595,15.7666688 82.2827272,15.34 C82.4893949,14.9133312 82.779392,14.5500015 83.1527272,14.25 C83.5260624,13.9499985 83.9627247,13.7200008 84.4627272,13.56 C84.9627297,13.3999992 85.5060576,13.32 86.0927272,13.32 C86.8793978,13.32 87.6160571,13.4333322 88.3027272,13.66 C88.9893973,13.8866678 89.619391,14.2533308 90.1927272,14.76 L89.1127272,16.38 C88.5793912,15.979998 88.0627297,15.6866676 87.5627272,15.5 C87.0627247,15.3133324 86.566063,15.22 86.0727272,15.22 C85.6193916,15.22 85.2393954,15.3133324 84.9327272,15.5 C84.626059,15.6866676 84.4727272,15.9866646 84.4727272,16.4 C84.4727272,16.5866676 84.5093935,16.7399994 84.5827272,16.86 C84.6560609,16.9800006 84.7727264,17.0866662 84.9327272,17.18 C85.092728,17.2733338 85.3027259,17.3633329 85.5627272,17.45 C85.8227285,17.5366671 86.1460586,17.6266662 86.5327272,17.72 C87.2527308,17.9066676 87.8693913,18.0933324 88.3827272,18.28 C88.8960631,18.4666676 89.3160589,18.6799988 89.6427272,18.92 C89.9693955,19.1600012 90.2093931,19.4366651 90.3627272,19.75 C90.5160613,20.0633349 90.5927272,20.4399978 90.5927272,20.88 C90.5927272,21.9066718 90.212731,22.7166637 89.4527272,23.31 C88.6927234,23.9033363 87.6594004,24.2 86.3527272,24.2 Z M99.0672726,23.46 C98.7072708,23.6200008 98.2672752,23.7799992 97.7472726,23.94 C97.22727,24.1000008 96.6806088,24.18 96.1072726,24.18 C95.7339374,24.18 95.3839409,24.1333338 95.0572726,24.04 C94.7306043,23.9466662 94.4439405,23.7966677 94.1972726,23.59 C93.9506047,23.3833323 93.75394,23.1166683 93.6072726,22.79 C93.4606052,22.4633317 93.3872726,22.066669 93.3872726,21.6 L93.3872726,15.58 L92.0072726,15.58 L92.0072726,13.52 L93.3872726,13.52 L93.3872726,10.12 L96.0672726,10.12 L96.0672726,13.52 L98.2672726,13.52 L98.2672726,15.58 L96.0672726,15.58 L96.0672726,20.7 C96.0672726,21.0733352 96.1639383,21.3366659 96.3572726,21.49 C96.5506069,21.6433341 96.7872712,21.72 97.0672726,21.72 C97.347274,21.72 97.6206046,21.6733338 97.8872726,21.58 C98.1539406,21.4866662 98.3672718,21.406667 98.5272726,21.34 L99.0672726,23.46 Z M100.921818,24 L100.921818,13.52 L103.601818,13.52 L103.601818,24 L100.921818,24 Z M100.921818,12.06 L100.921818,9.4 L103.601818,9.4 L103.601818,12.06 L100.921818,12.06 Z M105.816364,18.76 C105.816364,18.026663 105.943029,17.3333366 106.196364,16.68 C106.449698,16.0266634 106.816361,15.4533358 107.296364,14.96 C107.776366,14.4666642 108.35636,14.0733348 109.036364,13.78 C109.716367,13.4866652 110.483026,13.34 111.336364,13.34 C112.483036,13.34 113.459693,13.5866642 114.266364,14.08 C115.073034,14.5733358 115.676362,15.219996 116.076364,16.02 L113.456364,16.82 C113.229696,16.4333314 112.929699,16.1366677 112.556364,15.93 C112.183028,15.7233323 111.769699,15.62 111.316364,15.62 C110.929695,15.62 110.569699,15.6966659 110.236364,15.85 C109.903029,16.0033341 109.613031,16.2166653 109.366364,16.49 C109.119696,16.7633347 108.926364,17.0933314 108.786364,17.48 C108.646363,17.8666686 108.576364,18.293331 108.576364,18.76 C108.576364,19.226669 108.649696,19.6533314 108.796364,20.04 C108.943031,20.4266686 109.139696,20.7599986 109.386364,21.04 C109.633031,21.3200014 109.923029,21.5366659 110.256364,21.69 C110.589699,21.8433341 110.943028,21.92 111.316364,21.92 C111.796366,21.92 112.239695,21.8000012 112.646364,21.56 C113.053032,21.3199988 113.336363,21.0266684 113.496364,20.68 L116.116364,21.48 C115.756362,22.280004 115.163034,22.9333308 114.336364,23.44 C113.509693,23.9466692 112.516369,24.2 111.356364,24.2 C110.503026,24.2 109.736367,24.0533348 109.056364,23.76 C108.37636,23.4666652 107.796366,23.0700025 107.316364,22.57 C106.836361,22.0699975 106.466365,21.4900033 106.206364,20.83 C105.946362,20.1699967 105.816364,19.4800036 105.816364,18.76 Z"></path>
</svg>
