<?xml version="1.0" encoding="UTF-8"?>
<svg width="360px" height="84px" viewBox="0 0 360 84" version="1.1" xmlns="http://www.w3.org/2000/svg" xmlns:xlink="http://www.w3.org/1999/xlink">
  <defs>
    <linearGradient x1="50%" y1="0%" x2="50%" y2="100%" id="skyGradient">
      <stop stop-color="#3C185E" offset="0%"></stop>
      <stop stop-color="#EF0462" offset="100%"></stop>
    </linearGradient>
  </defs>
  <rect fill="url(#skyGradient)" x="0" y="0" width="360" height="84"></rect>
  <g id="stars" transform="translate(16.000000, 7.000000)" fill="#FFFFFF">
    <circle cx="1" cy="31" r="1"></circle>
    <circle cx="12" cy="70" r="1"></circle>
    <circle cx="22" cy="6" r="1"></circle>
    <circle cx="65" cy="9" r="1"></circle>
    <circle cx="86" cy="24" r="1"></circle>
    <circle cx="146" cy="24" r="1"></circle>
    <circle cx="164" cy="4" r="1"></circle>
    <circle cx="189" cy="30" r="1"></circle>
    <circle cx="247" cy="11" r="1"></circle>
    <circle cx="302" cy="36" r="1"></circle>
    <circle cx="313" cy="6" r="1"></circle>
    <circle cx="332" cy="69" r="1"></circle>
    <path d="M247,22 C247.233539,22 247.75,12.25 248,12 C248.25,11.75 258,11.3187458 258,11 C258,10.739916 248.25,10.25 248,10 C247.75,9.75 247.292201,0 247,0 C246.684204,0 246.25,9.75 246,10 C245.75,10.25 236,10.7635113 236,11 C236,11.3278717 245.75,11.75 246,12 C246.25,12.25 246.775587,22 247,22 Z" opacity="0.3"></path>
  </g>
  <g id="skyline" transform="translate(0.000000, 15.000000)" fill="#FFFFFF">
    <polyline id="Path-2" points="0 69 36.4261894 69 36.4261894 62.5 44.8159613 62.5 44.8159613 51.5 57 51.5 57 65 61.5 65 61.5 45 75 45 75 59 80.239211 59 80.239211 17 96.2621943 23 96.2621943 52 103.818359 51.5 103.818359 57 109 57 109 27 112 27 112 18.5 115 18.5 115 11.5 132 11.5 132 18.5 135 18.5 135 27 138 27 138 49 142.451172 49 142.451172 17 149.5625 0 156.673828 17 156.673828 44 161.5 44 165.5 37.5 165.5 24.5 178.5 24.5 178.5 32.5 183 32.5 184 5 199.5 5 199.5 47.5 204 48 204 54 208.5 54 208.5 43 214.5 42.5 214.5 22 225 12 235.5 22 235.5 50 239.490234 50 239.490234 35.5 259.953125 35.5 259.953125 54 265.5 54 265.5 49 279 49 279 26 291.5 26 291.5 49 296.5 49 296.5 58 300.5 62 306.5 62 306.5 54 319.5 54 319.5 69 325.340311 69 325.340311 65 338.41795 65 338.41795 69 360 69"></polyline>
  </g>
</svg>
