<?xml version="1.0" encoding="UTF-8"?>
<svg width="375px" height="258px" viewBox="0 0 375 258" version="1.1" xmlns="http://www.w3.org/2000/svg" xmlns:xlink="http://www.w3.org/1999/xlink">
  <defs>
    <linearGradient x1="50%" y1="0%" x2="50%" y2="100%" id="gradient">
      <stop stop-color="#FFFFFF" offset="0%"></stop>
      <stop stop-color="#FFFFFF" stop-opacity="0" offset="100%"></stop>
    </linearGradient>
  </defs>
  <polygon fill="url(#gradient)" opacity="0.25" points="0 69 40.4261894 69 40.4261894 62.5 48.8159613 62.5 48.8159613 51.5 61 51.5 61 65 65.5 65 65.5 45 79 45 79 59 84.239211 59 84.239211 17 100.262194 23 100.262194 52 107.818359 51.5 107.818359 57 113 57 113 27 116 27 116 18.5 119 18.5 119 11.5 136 11.5 136 18.5 139 18.5 139 27 142 27 142 49 146.451172 49 146.451172 17 153.5625 0 160.673828 17 160.673828 44 165.5 44 169.5 37.5 169.5 24.5 182.5 24.5 182.5 32.5 187 32.5 188 5 203.5 5 203.5 47.5 208 48 208 54 212.5 54 212.5 43 218.5 42.5 218.5 22 229 12 239.5 22 239.5 50 243.490234 50 243.490234 35.5 263.953125 35.5 263.953125 54 269.5 54 269.5 49 283 49 283 26 295.5 26 295.5 49 300.5 49 300.5 58 304.5 62 310.5 62 310.5 54 323.5 54 323.5 69 329.340311 69 329.340311 65 342.41795 65 342.41795 69 375 69 375 258 0 258"></polygon>
</svg>
